<?xml version="1.0" encoding="UTF-8"?><svg id="Layer_2" xmlns="http://www.w3.org/2000/svg" viewBox="0 0 1013.97 286.99"><defs><style>.cls-1{fill:#28a2d9;}.cls-2{fill:#606161;}</style></defs><path class="cls-1" d="M1008.51,53.72h-48.25V5.47c0-3.02-2.45-5.47-5.47-5.47h-61.82c-3.02,0-5.47,2.45-5.47,5.47V53.72h-48.25c-3.02,0-5.47,2.45-5.47,5.47v61.82c0,3.02,2.45,5.47,5.47,5.47h48.25v48.25c0,3.02,2.45,5.47,5.47,5.47h61.82c3.02,0,5.47-2.45,5.47-5.47v-48.25h48.25c3.02,0,5.47-2.45,5.47-5.47V59.19c0-3.02-2.45-5.47-5.47-5.47Z"/><g><path class="cls-2" d="M129.64,237.14h-15.05v-108.77l-42.14,63.42-40.34-61.21v106.56h-14.45V102.08h12.64l42.54,64.22,42.75-64.22h14.05V237.14Z"/><path class="cls-2" d="M221.75,148.44c4.21,3.81,7.22,8.63,9.23,14.25,1.81,5.02,2.81,10.23,3.01,16.05,.2,5.82-.4,11.04-1.4,15.85h-64.42c.8,10.03,3.61,18.06,8.63,23.88,5.42,6.22,12.64,9.43,21.87,9.43,10.03,0,18.06-3.21,23.88-9.63l6.82,7.22c-8.03,8.83-18.26,13.25-30.7,13.25-14.05,0-25.09-4.82-33.11-14.25-7.22-8.63-11.04-19.87-11.44-33.71-.2-12.84,1.81-23.28,6.02-31.51,3.41-6.62,8.23-11.64,14.25-15.05,6.22-3.81,13.45-5.62,21.67-5.62,4.82,0,9.43,.8,14.05,2.61,4.42,1.81,8.23,4.21,11.64,7.22Zm-1.4,32.71c0-5.82-.8-11.04-2.41-15.25-1.61-4.21-3.81-7.63-6.62-10.24-2.21-2.01-4.42-3.61-7.02-4.62-7.02-2.61-13.85-2.01-20.67,1.61-5.02,2.61-8.83,6.42-11.44,11.84-2.61,5.42-4.01,11.64-4.21,19.07h52.38v-2.41Z"/><path class="cls-2" d="M314.26,231.92c-7.02,4.62-14.65,6.82-23.08,6.82-13.25,0-23.68-4.82-31.31-14.45-7.02-8.83-10.44-20.67-10.44-35.52s3.41-26.69,10.44-35.52c7.63-9.83,18.06-14.65,31.31-14.65,8.43,0,16.05,2.21,23.08,6.82v-43.35h13.65V237.14h-13.65v-5.22Zm0-73.45c-5.82-5.82-13.65-8.83-23.08-8.83-8.23,0-14.65,3.01-19.67,9.23-5.62,7.22-8.43,17.26-8.43,29.9s2.81,22.68,8.43,29.7c5.02,6.22,11.44,9.43,19.67,9.43,9.43,0,17.26-3.01,23.08-9.03v-60.41Z"/><path class="cls-2" d="M414.4,231.92c-7.02,4.62-14.65,6.82-23.08,6.82-13.25,0-23.68-4.82-31.31-14.45-7.02-8.83-10.44-20.67-10.44-35.52s3.41-26.69,10.44-35.52c7.63-9.83,18.06-14.65,31.31-14.65,8.43,0,16.05,2.21,23.08,6.82v-43.35h13.65V237.14h-13.65v-5.22Zm0-73.45c-5.82-5.82-13.65-8.83-23.08-8.83-8.23,0-14.65,3.01-19.67,9.23-5.62,7.22-8.43,17.26-8.43,29.9s2.81,22.68,8.43,29.7c5.02,6.22,11.44,9.43,19.67,9.43,9.43,0,17.26-3.01,23.08-9.03v-60.41Z"/><path class="cls-2" d="M516.35,148.44c4.21,3.81,7.22,8.63,9.23,14.25,1.81,5.02,2.81,10.23,3.01,16.05,.2,5.82-.4,11.04-1.41,15.85h-64.42c.8,10.03,3.61,18.06,8.63,23.88,5.42,6.22,12.64,9.43,21.87,9.43,10.03,0,18.06-3.21,23.88-9.63l6.82,7.22c-8.03,8.83-18.26,13.25-30.7,13.25-14.05,0-25.08-4.82-33.11-14.25-7.22-8.63-11.04-19.87-11.44-33.71-.2-12.84,1.81-23.28,6.02-31.51,3.41-6.62,8.23-11.64,14.25-15.05,6.22-3.81,13.45-5.62,21.67-5.62,4.82,0,9.43,.8,14.05,2.61,4.42,1.81,8.23,4.21,11.64,7.22Zm-1.4,32.71c0-5.82-.8-11.04-2.41-15.25-1.61-4.21-3.81-7.63-6.62-10.24-2.21-2.01-4.42-3.61-7.02-4.62-7.02-2.61-13.85-2.01-20.67,1.61-5.02,2.61-8.83,6.42-11.44,11.84-2.61,5.42-4.01,11.64-4.21,19.07h52.38v-2.41Z"/><path class="cls-2" d="M576.55,181.96l4.01,1.2c8.83,2.81,15.25,5.82,19.47,9.03,6.02,4.62,9.43,10.44,10.24,17.86,.4,4.62-.6,8.83-3.01,13.04s-5.82,7.63-10.24,10.24c-3.21,1.81-6.82,3.21-10.64,4.01-3.81,1-7.63,1.4-11.64,1.4-12.24,0-22.48-4.42-30.5-13.25l6.82-7.22c5.82,6.42,13.85,9.63,23.68,9.63,2.61,0,5.22-.4,7.63-1,2.61-.6,4.82-1.41,6.82-2.41,2.41-1.41,4.21-3.41,5.62-5.82s1.81-5.02,1.61-7.83c-.4-4.21-2.81-7.83-7.43-10.44-2.41-1.41-6.62-3.01-12.64-5.02l-4.01-1.2c-8.83-2.61-15.25-5.62-19.47-8.83-6.02-4.62-9.43-10.44-10.03-17.86-.6-4.62,.4-9.03,2.81-13.25,2.21-4.21,5.62-7.43,10.24-10.03,3.21-1.81,6.82-3.21,10.64-4.21,3.81-1,7.63-1.4,11.64-1.4,12.24,0,22.48,4.42,30.5,13.45l-6.82,7.22c-5.82-6.42-13.65-9.63-23.68-9.63-2.81,0-5.42,.2-7.83,.8-2.21,.6-4.42,1.61-6.42,2.61-2.61,1.4-4.42,3.41-5.82,5.82-1.41,2.41-1.81,5.02-1.61,7.83,.4,4.21,2.81,7.63,7.42,10.44,2.41,1.4,6.62,3.01,12.64,4.82Z"/><path class="cls-2" d="M645.98,116.73c0,2.21-.8,4.21-2.61,6.02-1.81,1.81-3.81,2.61-6.02,2.61-2.61,0-4.62-.8-6.22-2.61-1.81-1.81-2.61-3.81-2.61-6.02,0-2.41,.8-4.42,2.61-6.22,1.61-1.81,3.61-2.61,6.22-2.61,2.21,0,4.21,.8,6.02,2.61,1.81,1.81,2.61,3.81,2.61,6.22Zm-1.81,120.41h-13.85v-96.13h13.85v96.13Z"/><path class="cls-2" d="M730.27,231.92c-7.02,4.62-14.65,6.82-22.88,6.82-13.25,0-23.68-4.82-31.31-14.45-7.02-8.83-10.44-20.67-10.44-35.52s3.41-26.69,10.44-35.52c7.62-9.83,18.06-14.65,31.31-14.65,8.23,0,15.85,2.21,22.88,6.82v-4.42h13.85v105.76c0,4.62-1,9.23-3.21,13.45-2.21,4.21-5.22,7.83-9.23,10.84-3.61,2.61-8.03,4.41-13.04,5.62-4.21,1-9.23,1.61-14.85,1.61-12.24,0-22.28-4.42-30.3-13.25l6.82-7.42c5.82,6.42,13.65,9.63,23.48,9.63,4.42,0,8.03-.4,11.04-1,3.01-.6,5.62-1.81,7.83-3.41,2.41-1.81,4.21-4.01,5.62-6.62,1.4-2.81,2.01-6.02,2.01-9.43v-14.85Zm0-73.45c-5.82-5.82-13.45-8.83-22.88-8.83-8.23,0-14.85,3.01-19.67,9.23-5.62,7.22-8.43,17.26-8.43,29.9s2.81,22.68,8.43,29.7c4.82,6.22,11.44,9.43,19.67,9.43,9.43,0,17.06-3.01,22.88-9.03v-60.41Z"/><path class="cls-2" d="M785.25,145.43c7.02-4.62,14.65-6.82,22.88-6.82,2.61,0,5.02,.2,7.43,.6,3.01,.6,5.62,1.2,8.03,2.21,5.42,2.61,9.83,6.22,12.84,11.04,2.81,4.62,4.21,10.03,4.21,15.85v68.83h-13.65v-68.83c0-4.21-1-7.83-2.81-10.84-1.81-2.81-4.21-4.82-7.22-6.22-1.2-.6-2.61-1-4.21-1.2-1.41-.2-2.81-.4-4.62-.4-9.43,0-17.06,3.01-22.88,8.83v78.67h-13.85v-96.13h13.85v4.42Z"/></g><g><path class="cls-1" d="M30.54,258.78c.99,1.12,1.34,2.62,1.01,4.49-.33,1.87-1.2,3.37-2.59,4.49-1.43,1.16-3.19,1.73-5.3,1.73h-4.04l-1.84,10.44h-2.55l4.03-22.88h6.59c2.11,0,3.67,.58,4.69,1.73Zm-10.57,8.67h4.04c1.33,0,2.4-.34,3.24-1.02,.91-.75,1.51-1.8,1.75-3.16,.24-1.36,.02-2.41-.63-3.16-.59-.68-1.55-1.02-2.88-1.02h-4.04l-1.47,8.36Z"/><path class="cls-1" d="M36.63,264.52c1.17-.85,2.33-1.29,3.52-1.29,1.33,0,2.33,.48,3.07,1.46l-1.41,1.26c-.41-.58-1.07-.85-1.99-.85-1.12,0-2.34,.58-3.61,1.77l-2.3,13.05h-2.34l2.87-16.28h2.34l-.16,.88Z"/><path class="cls-1" d="M51.67,263.23c2.38,0,4.1,.82,5.21,2.45,1.03,1.5,1.32,3.5,.87,6.05-.44,2.52-1.44,4.52-3,6.05-1.67,1.6-3.69,2.41-6.07,2.41s-4.1-.82-5.18-2.41c-1.02-1.53-1.31-3.54-.87-6.05,.45-2.55,1.45-4.55,3-6.05,1.65-1.63,3.66-2.45,6.04-2.45Zm-6.73,8.5c-.38,2.14-.17,3.84,.64,5.03,.73,1.05,1.86,1.6,3.42,1.6s2.92-.54,4.02-1.6c1.23-1.19,2.04-2.89,2.42-5.03,.38-2.14,.17-3.84-.64-5.03-.73-1.05-1.86-1.6-3.46-1.6s-2.88,.54-3.98,1.6c-1.23,1.19-2.04,2.89-2.42,5.03Z"/><path class="cls-1" d="M69.85,279.04c-1.33,.78-2.68,1.16-4.11,1.16-2.24,0-3.87-.82-4.87-2.45-.93-1.5-1.15-3.5-.71-6.02,.44-2.51,1.38-4.52,2.83-6.02,1.58-1.67,3.5-2.48,5.74-2.48,1.43,0,2.65,.37,3.7,1.16l1.29-7.34h2.31l-4.03,22.88h-2.31l.16-.88Zm2.19-12.44c-.81-.99-2.05-1.5-3.64-1.5-1.39,0-2.57,.51-3.61,1.56-1.17,1.22-1.94,2.92-2.32,5.06-.38,2.14-.2,3.84,.54,5.03,.66,1.05,1.66,1.6,3.05,1.6,1.6,0,3.01-.51,4.18-1.53l1.8-10.23Z"/><path class="cls-1" d="M86.04,279.17c-1.33,.78-2.68,1.16-4.11,1.16-.44,0-.84-.03-1.24-.1-.46-.1-.88-.2-1.26-.37-.87-.44-1.51-1.05-1.88-1.87-.34-.78-.42-1.66-.24-2.68l2.06-11.66h2.34l-2.06,11.66c-.13,.71-.07,1.36,.15,1.87,.22,.48,.54,.82,1,1.05,.22,.1,.45,.17,.68,.2,.23,.03,.46,.07,.77,.07,1.6,0,3.01-.51,4.18-1.53l2.35-13.32h2.31l-2.87,16.28h-2.31l.13-.75Z"/><path class="cls-1" d="M105.53,266.73c-.79-1.09-2.02-1.63-3.72-1.63-1.56,0-2.88,.54-3.98,1.6-1.23,1.19-2.04,2.89-2.42,5.03-.38,2.14-.17,3.84,.64,5.03,.73,1.05,1.86,1.6,3.42,1.6,1.7,0,3.12-.54,4.3-1.63l.94,1.22c-1.62,1.5-3.49,2.24-5.56,2.24-2.38,0-4.1-.82-5.18-2.41-1.02-1.53-1.31-3.54-.87-6.05,.45-2.55,1.45-4.55,3-6.05,1.65-1.63,3.66-2.45,6.04-2.45,2.07,0,3.67,.75,4.76,2.28l-1.37,1.22Z"/><path class="cls-1" d="M107.87,278.15c-.03-.24-.05-.48-.04-.75,.01-.27,.06-.54,.12-.85l3.03-17.2h2.31l-.76,4.28h4.15l-.33,1.87h-4.15l-1.95,11.05c-.05,.27-.08,.48-.08,.65-.04,.78,.37,1.16,1.19,1.16s1.48-.27,2.09-.85l.97,1.22c-1.06,.99-2.2,1.46-3.38,1.46-.71,0-1.34-.1-1.81-.31-.75-.37-1.19-.95-1.36-1.73Z"/><path class="cls-1" d="M125.55,263.23c2.38,0,4.1,.82,5.21,2.45,1.03,1.5,1.32,3.5,.87,6.05-.44,2.52-1.44,4.52-3,6.05-1.67,1.6-3.69,2.41-6.07,2.41s-4.1-.82-5.18-2.41c-1.02-1.53-1.31-3.54-.87-6.05,.45-2.55,1.45-4.55,3-6.05,1.65-1.63,3.66-2.45,6.04-2.45Zm-6.73,8.5c-.38,2.14-.17,3.84,.64,5.03,.73,1.05,1.86,1.6,3.42,1.6s2.92-.54,4.02-1.6c1.23-1.19,2.04-2.89,2.42-5.03,.38-2.14,.17-3.84-.64-5.03-.73-1.05-1.86-1.6-3.46-1.6s-2.88,.54-3.98,1.6c-1.23,1.19-2.04,2.89-2.42,5.03Z"/><path class="cls-1" d="M139.75,270.57l.64,.21c1.41,.48,2.41,.99,3.03,1.53,.88,.78,1.29,1.77,1.2,3.03-.07,.78-.37,1.5-.9,2.21-.53,.71-1.21,1.29-2.04,1.73-.6,.31-1.25,.54-1.92,.68-.68,.17-1.33,.24-2.01,.24-2.07,0-3.67-.75-4.77-2.24l1.37-1.22c.79,1.09,2.06,1.63,3.72,1.63,.44,0,.9-.07,1.32-.17,.46-.1,.86-.24,1.23-.41,.45-.24,.82-.58,1.13-.99,.31-.41,.46-.85,.51-1.33,.06-.71-.24-1.33-.95-1.77-.37-.24-1.03-.51-1.99-.85l-.64-.2c-1.42-.44-2.41-.95-3.03-1.5-.88-.78-1.29-1.77-1.17-3.02,.04-.78,.34-1.53,.87-2.24,.5-.71,1.17-1.26,2.03-1.7,.6-.31,1.25-.54,1.93-.71,.68-.17,1.33-.24,2.01-.24,2.07,0,3.67,.75,4.76,2.28l-1.37,1.22c-.79-1.09-2.02-1.63-3.72-1.63-.48,0-.92,.03-1.35,.14-.39,.1-.79,.27-1.16,.44-.48,.24-.85,.58-1.16,.99-.31,.41-.46,.85-.51,1.33-.06,.71,.25,1.29,.95,1.77,.37,.24,1.03,.51,2,.82Z"/><path class="cls-1" d="M165.14,279.04c-1.33,.78-2.68,1.16-4.11,1.16-2.24,0-3.87-.82-4.87-2.45-.93-1.5-1.15-3.5-.71-6.02,.44-2.51,1.38-4.52,2.83-6.02,1.58-1.67,3.5-2.48,5.74-2.48,1.43,0,2.65,.37,3.7,1.16l1.29-7.34h2.31l-4.03,22.88h-2.31l.16-.88Zm2.19-12.44c-.81-.99-2.05-1.5-3.64-1.5-1.39,0-2.57,.51-3.61,1.56-1.17,1.22-1.94,2.92-2.32,5.06-.38,2.14-.2,3.84,.54,5.03,.66,1.05,1.66,1.6,3.05,1.6,1.6,0,3.01-.51,4.18-1.53l1.8-10.23Z"/><path class="cls-1" d="M184.9,264.89c.6,.65,.96,1.46,1.14,2.41,.16,.85,.17,1.73,.03,2.72s-.4,1.87-.71,2.69h-10.91c-.16,1.7,.07,3.06,.75,4.04,.73,1.05,1.86,1.6,3.42,1.6,1.7,0,3.15-.54,4.33-1.63l.94,1.22c-1.62,1.5-3.49,2.24-5.6,2.24-2.38,0-4.1-.82-5.18-2.41-.97-1.46-1.28-3.37-.93-5.71,.35-2.18,1-3.94,1.96-5.34,.78-1.12,1.74-1.97,2.86-2.55,1.17-.65,2.44-.95,3.84-.95,.82,0,1.57,.14,2.3,.44,.69,.31,1.27,.71,1.76,1.22Zm-1.21,5.54c.17-.99,.19-1.87,.05-2.58-.15-.71-.42-1.29-.82-1.73-.31-.34-.64-.61-1.05-.78-1.11-.44-2.28-.34-3.55,.27-.93,.44-1.69,1.09-2.29,2.01-.6,.92-1.03,1.97-1.28,3.23h8.87l.07-.41Z"/><path class="cls-1" d="M208.36,266.73c-.79-1.09-2.02-1.63-3.72-1.63-1.56,0-2.88,.54-3.98,1.6-1.23,1.19-2.04,2.89-2.42,5.03-.38,2.14-.17,3.84,.64,5.03,.73,1.05,1.86,1.6,3.42,1.6,1.7,0,3.12-.54,4.3-1.63l.94,1.22c-1.62,1.5-3.49,2.24-5.56,2.24-2.38,0-4.1-.82-5.18-2.41-1.02-1.53-1.31-3.54-.87-6.05,.45-2.55,1.45-4.55,3-6.05,1.65-1.63,3.66-2.45,6.04-2.45,2.07,0,3.67,.75,4.76,2.28l-1.37,1.22Z"/><path class="cls-1" d="M222.16,264.62c.5,.44,.81,.99,1.02,1.56,.2,.58,.23,1.22,.11,1.87l-2.09,11.86h-2.34l.17-.95c-1.47,.82-2.97,1.22-4.57,1.22-1.05,0-1.95-.14-2.62-.37-.95-.37-1.63-.99-2.05-1.87-.39-.88-.45-1.87-.2-2.92,.16-.54,.4-1.09,.72-1.6,.43-.71,1.05-1.33,1.79-1.87,.7-.51,1.52-.92,2.42-1.22l6.38-2.07,.04-.2c.08-.44,.04-.82-.06-1.19-.1-.37-.29-.68-.58-.95-.32-.31-.76-.51-1.28-.65-.46-.1-1.02-.17-1.67-.17-1.7,0-3.12,.54-4.3,1.63l-.97-1.26c1.62-1.5,3.49-2.24,5.59-2.24,.92,0,1.68,.1,2.37,.27,.84,.24,1.56,.61,2.11,1.12Zm-7.37,7.48c-.54,.17-1.02,.41-1.45,.71-.43,.31-.76,.65-1,1.05-.23,.34-.36,.68-.46,1.05-.18,.65-.15,1.26,.08,1.84,.39,1.05,1.35,1.6,2.81,1.6,1.8,0,3.32-.51,4.62-1.53l1.16-6.59-5.77,1.87Z"/><path class="cls-1" d="M227.82,279.92h-2.34l4.03-22.88h2.34l-4.03,22.88Z"/><path class="cls-1" d="M234.79,279.92h-2.34l2.87-16.28h2.34l-2.87,16.28Zm3.9-20.39c-.07,.37-.26,.71-.62,1.02-.36,.31-.72,.44-1.1,.44-.44,0-.76-.14-.98-.44-.25-.31-.33-.65-.26-1.02,.07-.41,.27-.75,.63-1.05,.33-.31,.69-.44,1.13-.44,.37,0,.69,.13,.94,.44,.25,.31,.33,.65,.26,1.05Z"/><path class="cls-1" d="M249.56,279.04c-1.33,.78-2.68,1.16-4.11,1.16-2.24,0-3.87-.82-4.87-2.45-.93-1.5-1.15-3.5-.71-6.02,.44-2.51,1.38-4.52,2.83-6.02,1.58-1.67,3.5-2.48,5.74-2.48,1.43,0,2.65,.37,3.7,1.16l1.29-7.34h2.31l-4.03,22.88h-2.31l.16-.88Zm2.19-12.44c-.81-.99-2.05-1.5-3.64-1.5-1.39,0-2.57,.51-3.61,1.56-1.17,1.22-1.94,2.92-2.32,5.06-.38,2.14-.2,3.84,.54,5.03,.66,1.05,1.66,1.6,3.05,1.6,1.6,0,3.01-.51,4.18-1.53l1.8-10.23Z"/><path class="cls-1" d="M268.27,264.62c.5,.44,.81,.99,1.02,1.56,.2,.58,.23,1.22,.11,1.87l-2.09,11.86h-2.34l.17-.95c-1.47,.82-2.97,1.22-4.57,1.22-1.05,0-1.95-.14-2.62-.37-.95-.37-1.63-.99-2.05-1.87-.39-.88-.45-1.87-.2-2.92,.16-.54,.4-1.09,.72-1.6,.43-.71,1.05-1.33,1.79-1.87,.7-.51,1.52-.92,2.42-1.22l6.38-2.07,.04-.2c.08-.44,.04-.82-.06-1.19-.1-.37-.29-.68-.58-.95-.32-.31-.76-.51-1.28-.65-.46-.1-1.02-.17-1.67-.17-1.7,0-3.12,.54-4.3,1.63l-.97-1.26c1.62-1.5,3.49-2.24,5.59-2.24,.92,0,1.68,.1,2.37,.27,.84,.24,1.56,.61,2.11,1.12Zm-7.37,7.48c-.54,.17-1.02,.41-1.45,.71-.43,.31-.76,.65-1,1.05-.23,.34-.36,.68-.46,1.05-.18,.65-.15,1.26,.08,1.84,.39,1.05,1.35,1.6,2.81,1.6,1.8,0,3.32-.51,4.62-1.53l1.16-6.59-5.77,1.87Z"/><path class="cls-1" d="M281.74,279.04c-1.33,.78-2.68,1.16-4.11,1.16-2.24,0-3.87-.82-4.87-2.45-.93-1.5-1.15-3.5-.71-6.02,.44-2.51,1.38-4.52,2.83-6.02,1.58-1.67,3.5-2.48,5.74-2.48,1.43,0,2.65,.37,3.7,1.16l1.29-7.34h2.31l-4.03,22.88h-2.31l.16-.88Zm2.19-12.44c-.81-.99-2.05-1.5-3.64-1.5-1.39,0-2.57,.51-3.61,1.56-1.17,1.22-1.94,2.92-2.32,5.06-.38,2.14-.2,3.84,.54,5.03,.66,1.05,1.66,1.6,3.05,1.6,1.6,0,3.01-.51,4.18-1.53l1.8-10.23Z"/><path class="cls-1" d="M297.51,286.55h-2.34l4.04-22.91h2.34l-.13,.75c1.33-.78,2.68-1.16,4.08-1.16,2.28,0,3.9,.82,4.86,2.48,.93,1.5,1.18,3.5,.74,6.02-.44,2.52-1.41,4.52-2.86,6.02-1.54,1.63-3.46,2.45-5.73,2.45-1.39,0-2.62-.37-3.67-1.16l-1.32,7.51Zm1.71-9.72c.81,1.02,2.01,1.53,3.6,1.53,1.39,0,2.61-.54,3.65-1.6,1.16-1.19,1.94-2.89,2.31-5.03,.38-2.14,.2-3.84-.53-5.06-.66-1.05-1.69-1.56-3.09-1.56-1.6,0-2.98,.51-4.14,1.5l-1.8,10.23Z"/><path class="cls-1" d="M325.19,264.62c.5,.44,.81,.99,1.02,1.56,.2,.58,.23,1.22,.11,1.87l-2.09,11.86h-2.34l.17-.95c-1.47,.82-2.97,1.22-4.57,1.22-1.05,0-1.95-.14-2.62-.37-.95-.37-1.63-.99-2.05-1.87-.39-.88-.45-1.87-.2-2.92,.16-.54,.4-1.09,.72-1.6,.43-.71,1.05-1.33,1.79-1.87,.7-.51,1.52-.92,2.42-1.22l6.38-2.07,.04-.2c.08-.44,.04-.82-.06-1.19-.1-.37-.29-.68-.58-.95-.32-.31-.76-.51-1.28-.65-.46-.1-1.02-.17-1.67-.17-1.7,0-3.12,.54-4.3,1.63l-.97-1.26c1.62-1.5,3.49-2.24,5.59-2.24,.92,0,1.68,.1,2.37,.27,.84,.24,1.56,.61,2.11,1.12Zm-7.37,7.48c-.54,.17-1.02,.41-1.45,.71-.43,.31-.76,.65-1,1.05-.23,.34-.36,.68-.46,1.05-.18,.65-.15,1.26,.08,1.84,.39,1.05,1.35,1.6,2.81,1.6,1.8,0,3.32-.51,4.62-1.53l1.16-6.59-5.77,1.87Z"/><path class="cls-1" d="M333.57,264.52c1.17-.85,2.33-1.29,3.52-1.29,1.33,0,2.33,.48,3.07,1.46l-1.41,1.26c-.41-.58-1.07-.85-1.99-.85-1.12,0-2.34,.58-3.61,1.77l-2.3,13.05h-2.34l2.87-16.28h2.34l-.16,.88Z"/><path class="cls-1" d="M351.26,264.62c.5,.44,.81,.99,1.02,1.56,.2,.58,.23,1.22,.11,1.87l-2.09,11.86h-2.34l.17-.95c-1.47,.82-2.97,1.22-4.57,1.22-1.05,0-1.95-.14-2.62-.37-.95-.37-1.63-.99-2.05-1.87-.39-.88-.45-1.87-.2-2.92,.16-.54,.4-1.09,.72-1.6,.43-.71,1.05-1.33,1.79-1.87,.7-.51,1.52-.92,2.42-1.22l6.38-2.07,.04-.2c.08-.44,.04-.82-.06-1.19-.1-.37-.29-.68-.58-.95-.32-.31-.76-.51-1.28-.65-.46-.1-1.02-.17-1.67-.17-1.7,0-3.12,.54-4.3,1.63l-.97-1.26c1.62-1.5,3.49-2.24,5.59-2.24,.92,0,1.68,.1,2.37,.27,.84,.24,1.56,.61,2.11,1.12Zm-7.37,7.48c-.54,.17-1.02,.41-1.45,.71-.43,.31-.76,.65-1,1.05-.23,.34-.36,.68-.46,1.05-.18,.65-.15,1.26,.08,1.84,.39,1.05,1.35,1.6,2.81,1.6,1.8,0,3.32-.51,4.62-1.53l1.16-6.59-5.77,1.87Z"/><path class="cls-1" d="M364.7,279.92h-2.34l4.03-22.88h2.34l-4.03,22.88Z"/><path class="cls-1" d="M381.23,264.62c.5,.44,.81,.99,1.02,1.56,.2,.58,.23,1.22,.11,1.87l-2.09,11.86h-2.34l.17-.95c-1.47,.82-2.97,1.22-4.57,1.22-1.05,0-1.95-.14-2.62-.37-.95-.37-1.63-.99-2.05-1.87-.39-.88-.45-1.87-.2-2.92,.16-.54,.4-1.09,.72-1.6,.43-.71,1.05-1.33,1.79-1.87,.7-.51,1.52-.92,2.42-1.22l6.38-2.07,.04-.2c.08-.44,.04-.82-.06-1.19-.1-.37-.29-.68-.58-.95-.32-.31-.76-.51-1.28-.65-.46-.1-1.02-.17-1.67-.17-1.7,0-3.12,.54-4.3,1.63l-.97-1.26c1.62-1.5,3.49-2.24,5.59-2.24,.92,0,1.68,.1,2.37,.27,.84,.24,1.56,.61,2.11,1.12Zm-7.37,7.48c-.54,.17-1.02,.41-1.45,.71-.43,.31-.76,.65-1,1.05-.23,.34-.36,.68-.46,1.05-.18,.65-.15,1.26,.08,1.84,.39,1.05,1.35,1.6,2.81,1.6,1.8,0,3.32-.51,4.62-1.53l1.16-6.59-5.77,1.87Z"/><path class="cls-1" d="M398.5,270.57l.64,.21c1.41,.48,2.41,.99,3.03,1.53,.88,.78,1.29,1.77,1.2,3.03-.07,.78-.37,1.5-.9,2.21-.53,.71-1.21,1.29-2.04,1.73-.6,.31-1.25,.54-1.92,.68-.68,.17-1.33,.24-2.01,.24-2.07,0-3.67-.75-4.77-2.24l1.37-1.22c.79,1.09,2.06,1.63,3.72,1.63,.44,0,.9-.07,1.32-.17,.46-.1,.86-.24,1.23-.41,.45-.24,.82-.58,1.13-.99,.31-.41,.46-.85,.51-1.33,.06-.71-.24-1.33-.95-1.77-.37-.24-1.03-.51-1.99-.85l-.64-.2c-1.42-.44-2.41-.95-3.03-1.5-.88-.78-1.29-1.77-1.17-3.02,.04-.78,.34-1.53,.87-2.24,.5-.71,1.17-1.26,2.03-1.7,.6-.31,1.25-.54,1.93-.71,.68-.17,1.33-.24,2.01-.24,2.07,0,3.67,.75,4.76,2.28l-1.37,1.22c-.79-1.09-2.02-1.63-3.72-1.63-.48,0-.92,.03-1.35,.14-.39,.1-.79,.27-1.16,.44-.48,.24-.85,.58-1.16,.99-.31,.41-.46,.85-.51,1.33-.06,.71,.25,1.29,.95,1.77,.37,.24,1.03,.51,2,.82Z"/><path class="cls-1" d="M418.91,264.89c.6,.65,.96,1.46,1.14,2.41,.16,.85,.17,1.73,.03,2.72s-.4,1.87-.71,2.69h-10.91c-.16,1.7,.07,3.06,.75,4.04,.73,1.05,1.86,1.6,3.42,1.6,1.7,0,3.15-.54,4.33-1.63l.94,1.22c-1.62,1.5-3.49,2.24-5.6,2.24-2.38,0-4.1-.82-5.18-2.41-.97-1.46-1.28-3.37-.93-5.71,.35-2.18,1-3.94,1.96-5.34,.78-1.12,1.74-1.97,2.86-2.55,1.17-.65,2.44-.95,3.84-.95,.82,0,1.57,.14,2.3,.44,.69,.31,1.27,.71,1.76,1.22Zm-1.21,5.54c.17-.99,.19-1.87,.05-2.58-.15-.71-.42-1.29-.82-1.73-.31-.34-.64-.61-1.05-.78-1.11-.44-2.28-.34-3.55,.27-.93,.44-1.69,1.09-2.29,2.01-.6,.92-1.03,1.97-1.28,3.23h8.87l.07-.41Z"/><path class="cls-1" d="M432.04,279.04c-1.33,.78-2.68,1.16-4.08,1.16-2.24,0-3.87-.82-4.87-2.45-.93-1.5-1.15-3.5-.71-6.02,.44-2.51,1.38-4.52,2.83-6.02,1.58-1.67,3.5-2.48,5.74-2.48,1.39,0,2.62,.37,3.67,1.16l.13-.75h2.34l-3.16,17.91c-.14,.78-.45,1.56-.95,2.28-.5,.71-1.12,1.33-1.89,1.83-.69,.44-1.49,.75-2.38,.95-.74,.17-1.61,.27-2.56,.27-2.07,0-3.64-.75-4.74-2.24l1.38-1.26c.79,1.09,2.02,1.63,3.69,1.63,.75,0,1.37-.07,1.9-.17,.53-.1,1.01-.31,1.43-.58,.46-.31,.83-.68,1.15-1.12,.32-.48,.52-1.02,.62-1.6l.44-2.51Zm2.19-12.44c-.81-.99-2.01-1.5-3.61-1.5-1.39,0-2.6,.51-3.61,1.56-1.17,1.22-1.94,2.92-2.32,5.06-.38,2.14-.2,3.84,.54,5.03,.63,1.05,1.66,1.6,3.05,1.6,1.6,0,2.98-.51,4.14-1.53l1.8-10.23Z"/><path class="cls-1" d="M448.23,279.17c-1.33,.78-2.68,1.16-4.11,1.16-.44,0-.84-.03-1.24-.1-.46-.1-.88-.2-1.26-.37-.87-.44-1.51-1.05-1.88-1.87-.34-.78-.42-1.66-.24-2.68l2.06-11.66h2.34l-2.06,11.66c-.13,.71-.07,1.36,.15,1.87,.22,.48,.54,.82,1,1.05,.22,.1,.45,.17,.68,.2,.23,.03,.46,.07,.77,.07,1.6,0,3.01-.51,4.18-1.53l2.35-13.32h2.31l-2.87,16.28h-2.31l.13-.75Z"/><path class="cls-1" d="M460.12,264.52c1.17-.85,2.33-1.29,3.52-1.29,1.33,0,2.33,.48,3.07,1.46l-1.41,1.26c-.41-.58-1.07-.85-1.99-.85-1.12,0-2.34,.58-3.61,1.77l-2.3,13.05h-2.34l2.87-16.28h2.34l-.16,.88Z"/><path class="cls-1" d="M468.25,279.92h-2.34l2.87-16.28h2.34l-2.87,16.28Zm3.9-20.39c-.07,.37-.26,.71-.62,1.02-.36,.31-.72,.44-1.1,.44-.44,0-.76-.14-.98-.44-.25-.31-.33-.65-.26-1.02,.07-.41,.27-.75,.63-1.05,.33-.31,.69-.44,1.13-.44,.37,0,.69,.13,.94,.44,.25,.31,.33,.65,.26,1.05Z"/><path class="cls-1" d="M483.02,279.04c-1.33,.78-2.68,1.16-4.11,1.16-2.24,0-3.87-.82-4.87-2.45-.93-1.5-1.15-3.5-.71-6.02,.44-2.51,1.38-4.52,2.83-6.02,1.58-1.67,3.5-2.48,5.74-2.48,1.43,0,2.65,.37,3.7,1.16l1.29-7.34h2.31l-4.03,22.88h-2.31l.16-.88Zm2.19-12.44c-.81-.99-2.05-1.5-3.64-1.5-1.39,0-2.57,.51-3.61,1.56-1.17,1.22-1.94,2.92-2.32,5.06-.38,2.14-.2,3.84,.54,5.03,.66,1.05,1.66,1.6,3.05,1.6,1.6,0,3.01-.51,4.18-1.53l1.8-10.23Z"/><path class="cls-1" d="M501.74,264.62c.5,.44,.81,.99,1.02,1.56,.2,.58,.23,1.22,.11,1.87l-2.09,11.86h-2.34l.17-.95c-1.47,.82-2.97,1.22-4.57,1.22-1.05,0-1.95-.14-2.62-.37-.95-.37-1.63-.99-2.05-1.87-.39-.88-.45-1.87-.2-2.92,.16-.54,.4-1.09,.72-1.6,.43-.71,1.05-1.33,1.79-1.87,.7-.51,1.52-.92,2.42-1.22l6.38-2.07,.04-.2c.08-.44,.04-.82-.06-1.19-.1-.37-.29-.68-.58-.95-.32-.31-.76-.51-1.28-.65-.46-.1-1.02-.17-1.67-.17-1.7,0-3.12,.54-4.3,1.63l-.97-1.26c1.62-1.5,3.49-2.24,5.59-2.24,.92,0,1.68,.1,2.37,.27,.84,.24,1.56,.61,2.11,1.12Zm-7.37,7.48c-.54,.17-1.02,.41-1.45,.71-.43,.31-.76,.65-1,1.05-.23,.34-.36,.68-.46,1.05-.18,.65-.15,1.26,.08,1.84,.39,1.05,1.35,1.6,2.81,1.6,1.8,0,3.32-.51,4.62-1.53l1.16-6.59-5.77,1.87Z"/><path class="cls-1" d="M515.2,279.04c-1.33,.78-2.68,1.16-4.11,1.16-2.24,0-3.87-.82-4.87-2.45-.93-1.5-1.15-3.5-.71-6.02,.44-2.51,1.38-4.52,2.83-6.02,1.58-1.67,3.5-2.48,5.74-2.48,1.43,0,2.65,.37,3.7,1.16l1.29-7.34h2.31l-4.03,22.88h-2.31l.16-.88Zm2.19-12.44c-.81-.99-2.05-1.5-3.64-1.5-1.39,0-2.57,.51-3.61,1.56-1.17,1.22-1.94,2.92-2.32,5.06-.38,2.14-.2,3.84,.54,5.03,.66,1.05,1.66,1.6,3.05,1.6,1.6,0,3.01-.51,4.18-1.53l1.8-10.23Z"/><path class="cls-1" d="M539.94,279.04c-1.33,.78-2.68,1.16-4.11,1.16-2.24,0-3.87-.82-4.87-2.45-.93-1.5-1.15-3.5-.71-6.02,.44-2.51,1.38-4.52,2.83-6.02,1.58-1.67,3.5-2.48,5.74-2.48,1.43,0,2.65,.37,3.7,1.16l1.29-7.34h2.31l-4.03,22.88h-2.31l.16-.88Zm2.19-12.44c-.81-.99-2.05-1.5-3.64-1.5-1.39,0-2.57,.51-3.61,1.56-1.17,1.22-1.94,2.92-2.32,5.06-.38,2.14-.2,3.84,.54,5.03,.66,1.05,1.66,1.6,3.05,1.6,1.6,0,3.01-.51,4.18-1.53l1.8-10.23Z"/><path class="cls-1" d="M559.7,264.89c.6,.65,.96,1.46,1.14,2.41,.16,.85,.17,1.73,.03,2.72s-.4,1.87-.71,2.69h-10.91c-.16,1.7,.07,3.06,.75,4.04,.73,1.05,1.86,1.6,3.42,1.6,1.7,0,3.15-.54,4.33-1.63l.94,1.22c-1.62,1.5-3.49,2.24-5.59,2.24-2.38,0-4.1-.82-5.18-2.41-.97-1.46-1.28-3.37-.93-5.71,.35-2.18,1-3.94,1.96-5.34,.78-1.12,1.74-1.97,2.86-2.55,1.17-.65,2.44-.95,3.84-.95,.82,0,1.57,.14,2.3,.44,.69,.31,1.27,.71,1.76,1.22Zm-1.21,5.54c.17-.99,.19-1.87,.05-2.58-.15-.71-.42-1.29-.82-1.73-.31-.34-.64-.61-1.05-.78-1.11-.44-2.28-.34-3.55,.27-.93,.44-1.69,1.09-2.29,2.01-.6,.92-1.03,1.97-1.28,3.23h8.87l.07-.41Z"/><path class="cls-1" d="M570.95,278.15c-.03-.24-.05-.48-.04-.75,.02-.27,.06-.54,.12-.85l3.03-17.2h2.31l-.76,4.28h4.15l-.33,1.87h-4.15l-1.95,11.05c-.05,.27-.08,.48-.08,.65-.04,.78,.37,1.16,1.19,1.16s1.48-.27,2.09-.85l.97,1.22c-1.06,.99-2.2,1.46-3.38,1.46-.71,0-1.34-.1-1.81-.31-.75-.37-1.19-.95-1.36-1.73Z"/><path class="cls-1" d="M588.64,263.23c2.38,0,4.1,.82,5.21,2.45,1.03,1.5,1.32,3.5,.87,6.05-.44,2.52-1.44,4.52-3,6.05-1.67,1.6-3.69,2.41-6.07,2.41s-4.1-.82-5.18-2.41c-1.02-1.53-1.31-3.54-.87-6.05,.45-2.55,1.45-4.55,3-6.05,1.65-1.63,3.66-2.45,6.04-2.45Zm-6.73,8.5c-.38,2.14-.17,3.84,.64,5.03,.73,1.05,1.86,1.6,3.42,1.6s2.92-.54,4.02-1.6c1.23-1.19,2.04-2.89,2.42-5.03,.38-2.14,.17-3.84-.64-5.03-.73-1.05-1.86-1.6-3.46-1.6s-2.88,.54-3.98,1.6c-1.23,1.19-2.04,2.89-2.42,5.03Z"/><path class="cls-1" d="M606.82,279.04c-1.33,.78-2.68,1.16-4.11,1.16-2.24,0-3.87-.82-4.87-2.45-.93-1.5-1.15-3.5-.71-6.02,.44-2.51,1.38-4.52,2.83-6.02,1.58-1.67,3.5-2.48,5.74-2.48,1.43,0,2.65,.37,3.7,1.16l1.29-7.34h2.31l-4.03,22.88h-2.31l.16-.88Zm2.19-12.44c-.81-.99-2.05-1.5-3.64-1.5-1.39,0-2.57,.51-3.61,1.56-1.17,1.22-1.94,2.92-2.32,5.06-.38,2.14-.2,3.84,.54,5.03,.66,1.05,1.66,1.6,3.05,1.6,1.6,0,3.01-.51,4.18-1.53l1.8-10.23Z"/><path class="cls-1" d="M622.89,263.23c2.38,0,4.1,.82,5.21,2.45,1.03,1.5,1.32,3.5,.87,6.05-.44,2.52-1.44,4.52-3,6.05-1.67,1.6-3.69,2.41-6.07,2.41s-4.1-.82-5.18-2.41c-1.02-1.53-1.31-3.54-.87-6.05,.45-2.55,1.45-4.55,3-6.05,1.65-1.63,3.66-2.45,6.04-2.45Zm-6.73,8.5c-.38,2.14-.17,3.84,.64,5.03,.73,1.05,1.86,1.6,3.42,1.6s2.92-.54,4.02-1.6c1.23-1.19,2.04-2.89,2.42-5.03,.38-2.14,.17-3.84-.64-5.03-.73-1.05-1.86-1.6-3.46-1.6s-2.88,.54-3.98,1.6c-1.23,1.19-2.04,2.89-2.42,5.03Z"/><path class="cls-1" d="M637.09,270.57l.64,.21c1.41,.48,2.41,.99,3.03,1.53,.88,.78,1.29,1.77,1.2,3.03-.07,.78-.37,1.5-.9,2.21-.53,.71-1.21,1.29-2.04,1.73-.6,.31-1.25,.54-1.92,.68-.67,.17-1.33,.24-2.01,.24-2.07,0-3.67-.75-4.77-2.24l1.37-1.22c.79,1.09,2.06,1.63,3.72,1.63,.44,0,.9-.07,1.32-.17,.46-.1,.86-.24,1.23-.41,.45-.24,.82-.58,1.13-.99,.31-.41,.46-.85,.5-1.33,.06-.71-.24-1.33-.94-1.77-.37-.24-1.03-.51-1.99-.85l-.64-.2c-1.42-.44-2.41-.95-3.03-1.5-.88-.78-1.29-1.77-1.17-3.02,.04-.78,.34-1.53,.87-2.24,.5-.71,1.17-1.26,2.03-1.7,.6-.31,1.25-.54,1.93-.71,.68-.17,1.33-.24,2.01-.24,2.07,0,3.67,.75,4.76,2.28l-1.37,1.22c-.79-1.09-2.02-1.63-3.72-1.63-.48,0-.92,.03-1.35,.14-.39,.1-.79,.27-1.17,.44-.48,.24-.85,.58-1.16,.99-.31,.41-.46,.85-.51,1.33-.06,.71,.25,1.29,.95,1.77,.37,.24,1.03,.51,2,.82Z"/></g></svg>