<?xml version="1.0" encoding="UTF-8"?><svg id="Layer_5" xmlns="http://www.w3.org/2000/svg" viewBox="0 0 1062.06 1062.06"><defs><style>.cls-1{fill:#28a2d9;}</style></defs><path class="cls-1" d="M1029.84,316.62h-284.4V32.22c0-17.79-14.42-32.22-32.22-32.22H348.84c-17.79,0-32.22,14.42-32.22,32.22V316.62H32.22c-17.79,0-32.22,14.42-32.22,32.22v364.39c0,17.79,14.42,32.22,32.22,32.22H316.62v284.4c0,17.79,14.42,32.22,32.22,32.22h364.39c17.79,0,32.22-14.42,32.22-32.22v-284.4h284.4c17.79,0,32.22-14.42,32.22-32.22V348.84c0-17.79-14.42-32.22-32.22-32.22Z"/></svg>